<svg version="1.2" xmlns="http://www.w3.org/2000/svg" viewBox="0 0 504 393" width="504" height="393">
	<title>epitech_BIG copy-svg</title>
	<style>
		.s0 { fill: #0091d3 } 
	</style>
	<path id="Layer" class="s0" d="m221.7 313.5q-4.5 0.1-9-0.2-4.6-0.3-9.1-1.1-4.4-0.8-8.8-2-4.4-1.2-8.7-2.8-3.3-1.4-6.5-3.1-3.2-1.7-6.2-3.8-3-2-5.7-4.4-2.7-2.4-5.2-5-2.2-2.5-4.2-5.2-2-2.8-3.6-5.7-1.7-2.9-3-6-1.4-3-2.4-6.2-1-3.3-1.8-6.5-0.8-3.3-1.3-6.7-0.5-3.3-0.8-6.6-0.2-3.4-0.2-6.8 0-1.7 0.1-3.5l0.2-3.4q0.2-1.7 0.4-3.5 0.2-1.7 0.5-3.4 0.3-1.8 0.8-3.5 0.4-1.8 0.9-3.5 0.5-1.8 1.2-3.5 0.7-1.6 1.4-3.3 0.8-1.6 1.6-3.1 0.9-1.5 1.9-2.9 1-1.5 2.1-2.8 1.1-1.4 2.3-2.7 1.2-1.2 2.6-2.4 1.4-1.1 2.9-2 1.5-1 3.2-1.7 1.6-0.8 3.3-1.4-3.3-1.4-6.3-3.5-3-2.1-5.5-4.7-2.6-2.6-4.5-5.6-2-3.1-3.4-6.4-1.4-3.8-2.5-7.7-1-3.9-1.7-7.9-0.7-4-1-8.1-0.3-4-0.2-8.1c-0.2-4.4 0-8.9 0.7-13.4 0.8-4.4 2-8.7 3.7-12.9 1.7-4.2 3.9-8.1 6.4-11.8 2.6-3.7 5.6-7.1 8.9-10.1q6-4.6 12.8-8 6.7-3.4 13.9-5.6 7.2-2.2 14.8-3.1 7.5-0.8 15-0.3h117.3v50.2h-123.4q-2-0.1-3.9 0.4-2 0.4-3.8 1.2-1.8 0.8-3.5 2-1.6 1.1-2.9 2.6c-1.9 2-3.3 4.3-4.3 6.8-1 2.6-1.6 5.2-1.6 8 0 2.7 0.4 5.4 1.4 7.9 0.9 2.5 2.3 4.9 4.1 6.9q1.4 1.5 3.2 2.7 1.7 1.2 3.6 2 1.9 0.8 4 1.1 2 0.4 4.1 0.3h123v50.2h-123.4q-2 0-3.9 0.4-2 0.4-3.8 1.2-1.8 0.8-3.5 2-1.6 1.2-2.9 2.7-1.5 1.5-2.6 3.3-1.1 1.9-1.9 3.9-0.8 2-1.1 4.1-0.4 2.1-0.3 4.3-0.1 2.1 0.3 4.1 0.4 2.1 1.1 4.1 0.8 1.9 1.9 3.7 1.1 1.8 2.6 3.3 1.4 1.5 3 2.7 1.7 1.2 3.6 2 1.8 0.8 3.8 1.2 2 0.4 4.1 0.4h123v50.1z"/>
	<path id="path1" class="s0" d="m418.7 392.1l-34.8-0.1v-12.9h6.8c31.1 0 36.7-4.9 36.7-25.7v-125.3c0-17 17.4-29.9 41-31.6-23.6-1.6-41-14.5-41-31.6v-125.2c0-20.9-6.2-25.8-36.7-25.7h-6.8v-12.9l34.8-0.1c31-0.1 47.2 9.4 47.2 25.7v140.3c0 17 15.6 28.7 38 29.5q-1.8 0.1-3.6 0.3-1.9 0.2-3.6 0.5-1.8 0.3-3.6 0.8-1.8 0.4-3.5 0.9c-14.9 4.6-23.7 13.8-23.7 27.1v140.3c0 16.1-15.9 25.7-46.6 25.7z"/>
	<path id="path2" class="s0" d="m38 365.4v-140.3c0-13.3-8.8-22.5-23.7-27q-1.7-0.6-3.5-1-1.8-0.5-3.6-0.8-1.8-0.3-3.6-0.5-1.8-0.2-3.6-0.3c22.4-0.8 38-12.5 38-29.5v-140.3c0-16.3 16.1-25.8 47.2-25.7l34.7 0.1v12.9h-6.8c-30.4-0.1-36.6 4.9-36.6 25.7v125.2c0 17.1-17.4 30-41 31.6 23.6 1.7 41 14.6 41 31.6v125.3c0 20.8 5.6 25.8 36.6 25.7h6.8v12.9h-34.7-0.6c-30.7 0-46.6-9.5-46.6-25.6z"/>
</svg>